<?xml version="1.0" encoding="utf-8"?>
<!--
  ~ ********************************************************
  ~                COPYRIGHT  (C) 2015 - 2017
  ~
  ~       This program is property of Labinvent JSC
  ~                 All rights reserved.
  ~ ********************************************************
  -->

<!-- Generator: Adobe Illustrator 19.1.1, SVG Export Plug-In . SVG Version: 6.00 Build 0)  -->
<svg xmlns="http://www.w3.org/2000/svg" x="0px" y="0px"
	 width="64px" height="114px" viewBox="0 0 64 114" style="enable-background:new 0 0 64 114;" xml:space="preserve">
<style type="text/css">
	.st0{fill:#12A9EB;}
	.st1{fill:#C0C0CE;}
</style>
<path id="bottle" style="fill:#12A9EB;" d="M46,23H18V3h28V23z M20,21h24V5H20V21z M52,27.5c0,2.7-1.8,5.5-4.1,5.5H16.1
	c-2.3,0-4.1-2.8-4.1-5.5v-2.1c0-2.7,1.8-4.4,4.1-4.4h31.8c2.3,0,4.1,1.7,4.1,4.4V27.5z M50,25.4c0-1.4-1-2.4-2.1-2.4H16.1
	C15,23,14,24,14,25.4v2.1c0,1.4,1,3.5,2.1,3.5h31.8c1.2,0,2.1-2.1,2.1-3.5V25.4z M50,111H13.2C6.8,111,2,105.9,2,99.4V53.7
	C2,47.3,12.4,31,19.2,31h24.9C50.8,31,62,47.4,62,53.7v45.7C62,105.9,56.5,111,50,111z M19.2,33C14.1,33,4,47.9,4,53.7v45.7
	c0,5.4,3.9,9.6,9.2,9.6H50c5.4,0,10-4.2,10-9.6V53.7C60,47.8,49.2,33,44.1,33H19.2z"/>
<path id="full" style="fill:#C0C0CE;" d="M20.8,35H43c5.2,0,15,15.6,15,20.9v41.5c0,5.4-4.4,9.6-9.8,9.6H15.4c-5.2,0-9.4-4.3-9.4-9.6V55.9
	C6,50.6,15.4,35,20.8,35z"/>
<path id="90_per" style="fill:#C0C0CE;" d="M53.5,45.1C56.1,49.2,58,53.7,58,56v41.5c0,5.4-4.4,9.5-9.8,9.5H15.4
	c-5.2,0-9.4-4.2-9.4-9.5V55.9c0-2.3,1.9-6.8,4.4-10.9L53.5,45.1z"/>
<path id="80_per" style="fill:#C0C0CE;" d="M57.5,53.1c0.4,1.1,0.5,2.1,0.5,2.8v41.5c0,5.4-4.4,9.6-9.8,9.6H15.4
	c-5.2,0-9.4-4.3-9.4-9.6V55.9c0-0.7,0.2-1.7,0.5-2.7L57.5,53.1z"/>
<path id="70_per" style="fill:#C0C0CE;" d="M58,58v39.4c0,5.4-4.4,9.6-9.8,9.6H15.4c-5.2,0-9.4-4.3-9.4-9.6V58H58z"/>
<path id="60_per" style="fill:#C0C0CE;" d="M58,66v31.4c0,5.4-4.4,9.6-9.8,9.6H15.4c-5.2,0-9.4-4.3-9.4-9.6V66H58z"/>
<path id="50_per" style="fill:#C0C0CE;" d="M58,71v26.4c0,5.4-4.4,9.6-9.8,9.6H15.4c-5.2,0-9.4-4.3-9.4-9.6V71H58z"/>
<path id="40_per" style="fill:#C0C0CE;" d="M58,77v20.4c0,5.4-4.4,9.6-9.8,9.6H15.4c-5.2,0-9.4-4.3-9.4-9.6V77H58z"/>
<path id="30_per" style="fill:#C0C0CE;" d="M58,83v14.4c0,5.4-4.4,9.6-9.8,9.6H15.4c-5.2,0-9.4-4.3-9.4-9.6V83H58z"/>
<path id="20_per" style="fill:#C0C0CE;" d="M58,90v7.4c0,5.4-4.4,9.6-9.8,9.6H15.4c-5.2,0-9.4-4.3-9.4-9.6V90H58z"/>
<path id="10_per" style="fill:#C0C0CE;" d="M58,97v0.4c0,5.4-4.4,9.6-9.8,9.6H15.4c-5.2,0-9.4-4.3-9.4-9.6V97H58z"/>
</svg>
