<svg width="51" height="31"
     viewBox="0 0 51 31"
     version="1.1"
     xmlns="http://www.w3.org/2000/svg" xmlns:xlink="http://www.w3.org/1999/xlink">
    <g id="Canvas" fill="none">
        <path fill-rule="evenodd" clip-rule="evenodd"
              d="M 34.5 30.5L 34.5 5.5L 16.5 5.5L 16.5 30.5L 34.5 30.5ZM 15.5 30.3596L 15.5 5.3676L 0.5 0.680095L 0.5 26.6096L 15.5 30.3596ZM 35.5 5.36759L 35.5 30.3596L 50.5 26.6096L 50.5 0.680095L 35.5 5.36759Z"
              stroke-miterlimit="8" stroke="#00ABEE"/>
        <line y1="-0.5" x2="51" y2="-0.5" transform="translate(0 1)" stroke="#00ABEE"/>
        <circle cx="3.5" cy="3.5" r="3" transform="translate(5 7)" stroke="#00ABEE"/>
        <circle cx="3.5" cy="3.5" r="3" transform="translate(5 17)" stroke="#00ABEE"/>
        <circle cx="3.5" cy="3.5" r="3" transform="translate(39 7)" stroke="#00ABEE"/>
        <circle cx="3.5" cy="3.5" r="3" transform="translate(39 17)" stroke="#00ABEE"/>
        <circle cx="3.5" cy="3.5" r="3" transform="translate(22 9)" stroke="#00ABEE"/>
        <circle cx="3.5" cy="3.5" r="3" transform="translate(22 19)" stroke="#00ABEE"/>
    </g>
</svg>

